<svg id="Layer_2" data-name="Layer 2" xmlns="http://www.w3.org/2000/svg" viewBox="0 0 1366 768"><defs><style>.cls-1{fill:#4f6d7a;opacity:0.85;}.cls-2{fill:#c0d6df;opacity:0.86;}.cls-3{fill:#fff;}.cls-4{fill:#4a6fa5;opacity:0.82;}.cls-5{fill:#dbe9ee;}.cls-6{fill:none;}</style></defs><path class="cls-1" d="M202.64,0S196,159,322,235c0,0,75,56,198,36,0,0,103-16.45,163-96.72,0,0,70-58.28,120-58.28,0,0,60-10,91,28,0,0,16,24,14,43,0,0,3,44,14,58,0,0,16,41,100,39,0,0,76-5,91-59,0,0,10-30-10-67l-22-33s-15-36,10-56c0,0,26-28,74-23,0,0,40,0,77,14,0,0,46,23,83,21l41-3.74V0Z"/><path class="cls-2" d="M0,218.19S119,197,172,246c0,0,66,56,71,125,0,0,23,58,78,65l89,13s51,2,72,35c0,0,20,34,0,62l-58,64s-27,30-9,65c0,0,26,33,65,32,0,0,50,0,88-19,0,0,60.59-34,98.21-39.45,1.64-.24,3.24-.42,4.79-.55,37-3-1.55.13-1.55.13S733,634,775,647c0,0,61,18,69,78l5.11,43H0Z"/><path class="cls-3" d="M256,514s16-34,69-22,57,51,57,51,4,39-28,47-61-10-61-10-30-15-37-35S256,514,256,514Z"/><path class="cls-4" d="M925.7,768V723.72S928,692,907,666l-22-36s-19-32,0-61.51S904,529,939,516s64-12,87-9,85,25,85,25,45.13,12,67.33-17.11q1.39-1.83,2.67-3.89c21-34,0-54.87,0-58.94V448l-29-56s-20-47-3-87c0,0,14-45,63-75s109-34,109-34h45V768Z"/><path class="cls-5" d="M0,0H202.64s-.09,127,71.13,196c0,0,63.58,70.3,161.91,77.65,0,0,91.54,11,149.93-23.81,0,0,60.39-26.29,97.39-75.56,0,0,64.58-51.63,101.29-56,0,0,72.93-15,103.82,19.33,0,0,16.89,16.93,19.39,38.64,0,0,4.85,62.73,19.18,76.22,0,0,23.47,30.62,88.9,31.55,0,0,57.07,1.09,90.75-43.48,0,0,20-28.51.83-74.05L1081,125s-20.37-33,13.82-59.48c0,0,26.22-23.38,64.7-19.95S1195,42.19,1251,64.1s54.82,18.46,81.91,16.18,33.09-3,33.09-3V196s-114.87-11.22-186.43,60.39c0,0-57.31,55.61-30.44,127.61L1181,448s28.65,41.78-2.67,66.89c0,0-16.29,34-71.81,15.54,0,0-79-32.09-129.75-25.26,0,0-69.77,7.81-91.77,63.32,0,0-22.17,30.22,10.91,79.37,0,0,29.4,32.29,29.74,68.72s.05,51.42.05,51.42H849.11s.1-66.16-18-78.58c0,0-27.24-40-77.17-46.7,0,0-98.14-6.28-156,30,0,0-58.46,38.77-125.68,34,0,0-49.45-.46-62.33-46.1,0,0-3.89-45.43,27.61-65.54L482,546s26.24-47-11.38-75c0,0-23.3-27.13-88.46-26.07,0,0-97.29-6.91-102.73-26.42,0,0-38.61-24.5-43-79.5,0,0-31.41-73-64.41-93,0,0-25-42.62-172-27.81Z"/><rect class="cls-6" width="1366" height="768"/></svg>